HIERARCHY
ROOT Hips
{
  OFFSET 365.14 88.179 197.519
  CHANNELS 6 Xposition Yposition Zposition Zrotation Xrotation Yrotation
  JOINT RightUpLeg
  {
    OFFSET -9.25084 -1.53971 -0.0324706
    CHANNELS 3 Zrotation Xrotation Yrotation
    JOINT RightLeg
    {
      OFFSET 0.0147984 -41.8767 0.0743683
      CHANNELS 3 Zrotation Xrotation Yrotation
      JOINT RightFoot
      {
        OFFSET 0.58129 -42.7665 -0.0966173
        CHANNELS 3 Zrotation Xrotation Yrotation
        End Site
        {
          OFFSET 0 -7.69 17.5
        }
      }
    }
  }
  JOINT LeftUpLeg
  {
    OFFSET 9.27183 -1.63567 0.0208533
    CHANNELS 3 Zrotation Xrotation Yrotation
    JOINT LeftLeg
    {
      OFFSET 0.0380064 -41.894 -0.0332375
      CHANNELS 3 Zrotation Xrotation Yrotation
      JOINT LeftFoot
      {
        OFFSET -0.00137207 -40.7578 0.276477
        CHANNELS 3 Zrotation Xrotation Yrotation
        End Site
        {
          OFFSET 0 -7.69 17.5
        }
      }
    }
  }
  JOINT Spine
  {
    OFFSET 0.0273715 14.2953 0.0132618
    CHANNELS 3 Zrotation Xrotation Yrotation
    JOINT Spine1
    {
      OFFSET 0.0356242 9.71545 0.0178671
      CHANNELS 3 Zrotation Xrotation Yrotation
      JOINT Spine2
      {
        OFFSET 0.0275401 10.1205 0.00234803
        CHANNELS 3 Zrotation Xrotation Yrotation
        JOINT Spine3
        {
          OFFSET 0.0388833 9.71499 0.00573168
          CHANNELS 3 Zrotation Xrotation Yrotation
          JOINT Neck
          {
            OFFSET 0.0812761 10.3796 0.11061
            CHANNELS 3 Zrotation Xrotation Yrotation
            JOINT Head
            {
              OFFSET 0.0694951 9.4737 0.0873993
              CHANNELS 3 Zrotation Xrotation Yrotation
              End Site
              {
                OFFSET 0 15.95 0
              }
            }
          }
          JOINT RightShoulder
          {
            OFFSET -3.16911 6.92878 0.0176909
            CHANNELS 3 Zrotation Xrotation Yrotation
            JOINT RightArm
            {
              OFFSET -12.7939 0.0472484 0.0511932
              CHANNELS 3 Zrotation Xrotation Yrotation
              JOINT RightForeArm
              {
                OFFSET -26.5086 -0.00989181 0.0576382
                CHANNELS 3 Zrotation Xrotation Yrotation
                JOINT RightHand
                {
                  OFFSET -26.0357 0.339815 -0.212656
                  CHANNELS 3 Zrotation Xrotation Yrotation
                  JOINT RightHandThumb1
                  {
                    OFFSET -2.48905 0.190105 3.12053
                    CHANNELS 3 Zrotation Xrotation Yrotation
                    JOINT RightHandThumb2
                    {
                      OFFSET -3.68274 0 0
                      CHANNELS 3 Zrotation Xrotation Yrotation
                      JOINT RightHandThumb3
                      {
                        OFFSET -2.55832 0 0
                        CHANNELS 3 Zrotation Xrotation Yrotation
                        End Site
                        {
                          OFFSET -2.194 0 0
                        }
                      }
                    }
                  }
                  JOINT RightInHandIndex
                  {
                    OFFSET -3.22368 0.508421 1.97842
                    CHANNELS 3 Zrotation Xrotation Yrotation
                    JOINT RightHandIndex1
                    {
                      OFFSET -5.21684 -0.091368 0.999158
                      CHANNELS 3 Zrotation Xrotation Yrotation
                      JOINT RightHandIndex2
                      {
                        OFFSET -3.61937 0 0
                        CHANNELS 3 Zrotation Xrotation Yrotation
                        JOINT RightHandIndex3
                        {
                          OFFSET -2.0521 0 0
                          CHANNELS 3 Zrotation Xrotation Yrotation
                          End Site
                          {
                            OFFSET -1.805 0 0
                          }
                        }
                      }
                    }
                  }
                  JOINT RightInHandMiddle
                  {
                    OFFSET -3.38211 0.517263 0.756737
                    CHANNELS 3 Zrotation Xrotation Yrotation
                    JOINT RightHandMiddle1
                    {
                      OFFSET -5.17411 -0.084 0.313895
                      CHANNELS 3 Zrotation Xrotation Yrotation
                      JOINT RightHandMiddle2
                      {
                        OFFSET -3.94947 0 0
                        CHANNELS 3 Zrotation Xrotation Yrotation
                        JOINT RightHandMiddle3
                        {
                          OFFSET -2.47579 0 0
                          CHANNELS 3 Zrotation Xrotation Yrotation
                          End Site
                          {
                            OFFSET -1.975 0 0
                          }
                        }
                      }
                    }
                  }
                  JOINT RightInHandRing
                  {
                    OFFSET -3.36516 0.537895 -0.128947
                    CHANNELS 3 Zrotation Xrotation Yrotation
                    JOINT RightHandRing1
                    {
                      OFFSET -4.63474 -0.022105 -0.478947
                      CHANNELS 3 Zrotation Xrotation Yrotation
                      JOINT RightHandRing2
                      {
                        OFFSET -3.44238 0 0
                        CHANNELS 3 Zrotation Xrotation Yrotation
                        JOINT RightHandRing3
                        {
                          OFFSET -2.3881 0 0
                          CHANNELS 3 Zrotation Xrotation Yrotation
                          End Site
                          {
                            OFFSET -1.857 0 0
                          }
                        }
                      }
                    }
                  }
                  JOINT RightInHandPinky
                  {
                    OFFSET -3.16105 0.469368 -1.20179
                    CHANNELS 3 Zrotation Xrotation Yrotation
                    JOINT RightHandPinky1
                    {
                      OFFSET -4.14105 -0.022105 -1.09053
                      CHANNELS 3 Zrotation Xrotation Yrotation
                      JOINT RightHandPinky2
                      {
                        OFFSET -2.75653 0 0
                        CHANNELS 3 Zrotation Xrotation Yrotation
                        JOINT RightHandPinky3
                        {
                          OFFSET -1.74189 0 0
                          CHANNELS 3 Zrotation Xrotation Yrotation
                          End Site
                          {
                            OFFSET -1.645 0 0
                          }
                        }
                      }
                    }
                  }
                }
              }
            }
          }
          JOINT LeftShoulder
          {
            OFFSET 3.24184 6.89832 -0.0228965
            CHANNELS 3 Zrotation Xrotation Yrotation
            JOINT LeftArm
            {
              OFFSET 12.8376 -0.0155948 -0.0448787
              CHANNELS 3 Zrotation Xrotation Yrotation
              JOINT LeftForeArm
              {
                OFFSET 26.5019 -0.0237061 -0.00609661
                CHANNELS 3 Zrotation Xrotation Yrotation
                JOINT LeftHand
                {
                  OFFSET 25.9931 -0.0767526 0.00928659
                  CHANNELS 3 Zrotation Xrotation Yrotation
                  JOINT LeftHandThumb1
                  {
                    OFFSET 2.48905 0.190105 3.12053
                    CHANNELS 3 Zrotation Xrotation Yrotation
                    JOINT LeftHandThumb2
                    {
                      OFFSET 3.68274 0 0
                      CHANNELS 3 Zrotation Xrotation Yrotation
                      JOINT LeftHandThumb3
                      {
                        OFFSET 2.55832 0 0
                        CHANNELS 3 Zrotation Xrotation Yrotation
                        End Site
                        {
                          OFFSET 2.194 0 0
                        }
                      }
                    }
                  }
                  JOINT LeftInHandIndex
                  {
                    OFFSET 3.22368 0.508421 1.97842
                    CHANNELS 3 Zrotation Xrotation Yrotation
                    JOINT LeftHandIndex1
                    {
                      OFFSET 5.21684 -0.091368 0.999158
                      CHANNELS 3 Zrotation Xrotation Yrotation
                      JOINT LeftHandIndex2
                      {
                        OFFSET 3.61937 0 0
                        CHANNELS 3 Zrotation Xrotation Yrotation
                        JOINT LeftHandIndex3
                        {
                          OFFSET 2.0521 0 0
                          CHANNELS 3 Zrotation Xrotation Yrotation
                          End Site
                          {
                            OFFSET 1.805 0 0
                          }
                        }
                      }
                    }
                  }
                  JOINT LeftInHandMiddle
                  {
                    OFFSET 3.38211 0.517263 0.756737
                    CHANNELS 3 Zrotation Xrotation Yrotation
                    JOINT LeftHandMiddle1
                    {
                      OFFSET 5.17411 -0.084 0.313895
                      CHANNELS 3 Zrotation Xrotation Yrotation
                      JOINT LeftHandMiddle2
                      {
                        OFFSET 3.94947 0 0
                        CHANNELS 3 Zrotation Xrotation Yrotation
                        JOINT LeftHandMiddle3
                        {
                          OFFSET 2.47579 0 0
                          CHANNELS 3 Zrotation Xrotation Yrotation
                          End Site
                          {
                            OFFSET 1.975 0 0
                          }
                        }
                      }
                    }
                  }
                  JOINT LeftInHandRing
                  {
                    OFFSET 3.36516 0.537895 -0.128947
                    CHANNELS 3 Zrotation Xrotation Yrotation
                    JOINT LeftHandRing1
                    {
                      OFFSET 4.63474 -0.022105 -0.478947
                      CHANNELS 3 Zrotation Xrotation Yrotation
                      JOINT LeftHandRing2
                      {
                        OFFSET 3.44238 0 0
                        CHANNELS 3 Zrotation Xrotation Yrotation
                        JOINT LeftHandRing3
                        {
                          OFFSET 2.3881 0 0
                          CHANNELS 3 Zrotation Xrotation Yrotation
                          End Site
                          {
                            OFFSET 1.857 0 0
                          }
                        }
                      }
                    }
                  }
                  JOINT LeftInHandPinky
                  {
                    OFFSET 3.16105 0.469368 -1.20179
                    CHANNELS 3 Zrotation Xrotation Yrotation
                    JOINT LeftHandPinky1
                    {
                      OFFSET 4.14105 -0.022105 -1.09053
                      CHANNELS 3 Zrotation Xrotation Yrotation
                      JOINT LeftHandPinky2
                      {
                        OFFSET 2.75653 0 0
                        CHANNELS 3 Zrotation Xrotation Yrotation
                        JOINT LeftHandPinky3
                        {
                          OFFSET 1.74189 0 0
                          CHANNELS 3 Zrotation Xrotation Yrotation
                          End Site
                          {
                            OFFSET 1.645 0 0
                          }
                        }
                      }
                    }
                  }
                }
              }
            }
          }
        }
      }
    }
  }
}
MOTION
Frames: 3
Frame Time: 0.00833333
7.500904359783606878e+02 3.264473259120622556e-02 3.262771799704378139e-01 -4.553896419568590620e-02 1.543302245065951428e-02 1.153513204037029810e-01 -2.471255745687848115e-01 1.693653357042989860e-01 -3.727904204483979411e-01 1.601484825135738310e-01 -4.984316603272214707e-01 -3.497486198484221764e-02 -1.136493771522075480e-01 2.212143686068032966e-01 9.241660597448615733e-02 -9.150008838869005956e-02 -4.831163837903834635e-02 -2.116832139037332083e-01 5.485301418244988708e-02 -8.666851119604314369e-02 -8.651564320155921695e-02 2.338913744853873267e-01 7.446155958372718819e-02 2.863596902554650381e-01 2.453660750070704721e-01 6.658194734365445455e-02 -2.502359706306090947e-01 5.644850904238678940e-02 -1.075054885222945754e-02 -4.837875530792308532e-02 9.267933395877826774e-02 -3.204941198114639317e-02 -7.117202211148722368e-02 -1.059953840166698649e-02 3.443416076885744137e-02 -3.562469556805312326e-02 1.140359709514945363e-01 1.546587678453830716e-01 -5.431708095731435648e-02 -2.216591316497663056e-01 4.404322763974665156e-01 -7.443206617946697135e-01 -2.821267120606775758e-01 -9.691852839739598102e-03 3.129504654531655161e-01 -4.603679248316053241e-01 5.297617782917627416e-01 2.846637117235296943e-03 -3.601385758964326111e+00 1.447048550423702951e+00 -2.530395002850960751e+00 4.706027202952994259e-01 -7.494889180551334018e-01 4.637577158006200850e-01 0.000000000000000000e+00 0.000000000000000000e+00 0.000000000000000000e+00 1.362577997820981498e-15 1.102651854214288762e-15 0.000000000000000000e+00 1.771079613541015016e-15 4.194491745553311306e-16 0.000000000000000000e+00 -7.614654703461115914e-16 -2.810335959835576701e-15 -1.790969888082734323e-15 0.000000000000000000e+00 0.000000000000000000e+00 0.000000000000000000e+00 0.000000000000000000e+00 -7.619954504786745728e-17 -2.545006706874105248e-15 0.000000000000000000e+00 1.115118654093678603e-15 1.039783802447612154e-15 -7.614654703461115914e-16 -2.810335959835576701e-15 -1.790969888082734323e-15 0.000000000000000000e+00 -1.481386251635823075e-15 -8.316739550958386727e-15 0.000000000000000000e+00 -7.750944371519702752e-16 -5.820172802937499848e-15 0.000000000000000000e+00 -3.405008591356849772e-15 -1.962677110181886774e-15 -7.614654703461115914e-16 -2.810335959835576701e-15 -1.790969888082734323e-15 0.000000000000000000e+00 0.000000000000000000e+00 0.000000000000000000e+00 0.000000000000000000e+00 -1.309961191091771141e-15 -2.701844667997000994e-15 0.000000000000000000e+00 1.138176515627037849e-15 -3.765926441785894995e-16 -7.614654703461115914e-16 -2.810335959835576701e-15 -1.790969888082734323e-15 0.000000000000000000e+00 0.000000000000000000e+00 0.000000000000000000e+00 0.000000000000000000e+00 3.916962173944752850e-16 1.757342926839261880e-15 0.000000000000000000e+00 8.305444922475679242e-16 2.882033632579417932e-15 3.443019475500378596e-02 -3.334696874235716368e-01 -2.596438725878549847e-01 -6.197721694685909277e-02 -4.155737113150914652e-01 2.972018069916396721e-01 1.215406488857063427e-01 8.872473536708288533e-01 3.958549170035348674e-01 -4.994328673015164810e-01 2.344296098356293823e-01 -1.596720336427555620e-01 0.000000000000000000e+00 0.000000000000000000e+00 0.000000000000000000e+00 1.725094433705315550e-15 -3.223250331151408760e-16 0.000000000000000000e+00 -7.096112071432052009e-16 -3.321335769035434350e-16 0.000000000000000000e+00 1.257001751428650217e-16 7.146686423143604030e-16 -1.560734535036755414e-17 0.000000000000000000e+00 0.000000000000000000e+00 0.000000000000000000e+00 0.000000000000000000e+00 2.679214613241174325e-16 -1.443331442604125757e-15 0.000000000000000000e+00 -1.134729935499658199e-15 2.277438468434914622e-15 1.257001751428650217e-16 7.146686423143604030e-16 -1.560734535036755414e-17 0.000000000000000000e+00 -2.197499729622093384e-15 1.032812333543018343e-16 0.000000000000000000e+00 1.052112084848371538e-15 8.445017517183137811e-16 0.000000000000000000e+00 -6.321416230050968467e-16 4.700342142347684228e-17 1.257001751428650217e-16 7.146686423143604030e-16 -1.560734535036755414e-17 0.000000000000000000e+00 0.000000000000000000e+00 0.000000000000000000e+00 0.000000000000000000e+00 5.387648517871939794e-16 1.680205163033857106e-15 0.000000000000000000e+00 -4.070880283968455448e-16 5.683610632660949079e-16 1.257001751428650217e-16 7.146686423143604030e-16 -1.560734535036755414e-17 0.000000000000000000e+00 0.000000000000000000e+00 0.000000000000000000e+00 0.000000000000000000e+00 8.867850138374975621e-16 1.846487838665611160e-15 0.000000000000000000e+00 -1.404956228912884734e-15 8.975854699496285533e-16
7.500947862124627363e+02 3.354758245551937856e-02 2.987712257666766957e-01 -3.969483487201363667e-03 5.340044617850975284e-02 2.861939796025114169e-01 -3.611232973173262306e-01 1.530089133553791392e-01 -5.806613499407712320e-01 1.477198732941217563e-01 -4.727751385715395216e-01 -3.419067723382447632e-02 -9.964635283886043304e-02 1.881708585302594161e-01 5.842262091914932759e-02 -1.547297250240924349e-01 -1.102585446522063167e-01 -3.852974197507500476e-01 6.605535584559313333e-02 -9.500435428819044292e-02 -1.214897346997664135e-01 2.226944191912111348e-01 7.714415591909565273e-02 2.973218678886295763e-01 2.944242427840466081e-01 4.379117773852233414e-02 -3.492579391265529520e-01 6.671220608209388336e-02 -1.157772333529498432e-02 -7.241736503000291425e-02 1.096441439949985552e-01 -2.975478155214767925e-02 -1.100150650262330387e-01 -1.061694107209220153e-02 3.154444350663557217e-02 -3.579270837068317113e-02 9.606531426982665989e-02 1.227547757583528631e-01 1.216829709121999663e-02 -2.094344236146335192e-01 4.480788908144474059e-01 -7.752465841015856451e-01 -2.840738851967952172e-01 -1.689551146748318605e-02 3.498096961248873815e-01 -4.651765102815361708e-01 4.748092775931105347e-01 1.160660322880426309e-01 -3.858148014135105441e+00 1.400538948943334638e+00 -2.817740039030232513e+00 5.505935741107442771e-01 -6.617836086611372792e-01 5.095749161299163443e-01 0.000000000000000000e+00 0.000000000000000000e+00 0.000000000000000000e+00 1.489561653107224093e-15 1.149553766383664025e-15 0.000000000000000000e+00 1.768665848741660716e-15 5.369138517829122023e-16 0.000000000000000000e+00 -7.170169349155158796e-16 -2.875774916928925535e-15 -1.723304259280663221e-15 0.000000000000000000e+00 0.000000000000000000e+00 0.000000000000000000e+00 0.000000000000000000e+00 -1.743356204609575960e-16 -3.083618268756321851e-15 0.000000000000000000e+00 8.560642144650457916e-16 9.765068668350442324e-16 -7.170169349155158796e-16 -2.875774916928925535e-15 -1.723304259280663221e-15 0.000000000000000000e+00 -1.649685529747287824e-15 -8.257055621084034621e-15 0.000000000000000000e+00 -6.883763586911260490e-16 -6.338583639093976566e-15 0.000000000000000000e+00 -3.487267072119658700e-15 -2.101721648928596986e-15 -7.170169349155158796e-16 -2.875774916928925535e-15 -1.723304259280663221e-15 0.000000000000000000e+00 0.000000000000000000e+00 0.000000000000000000e+00 0.000000000000000000e+00 -1.159726876848619390e-15 -2.392352142601826483e-15 0.000000000000000000e+00 1.181496024142943544e-15 -3.531041092341445056e-16 -7.170169349155158796e-16 -2.875774916928925535e-15 -1.723304259280663221e-15 0.000000000000000000e+00 0.000000000000000000e+00 0.000000000000000000e+00 0.000000000000000000e+00 4.412188025195667752e-16 1.910280045933616431e-15 0.000000000000000000e+00 8.438740114534268271e-16 2.693144522473132374e-15 5.123226432045622364e-02 -3.789185079020117586e-01 -2.840500450766041962e-01 -1.336679097798046389e-01 -4.172878466304077438e-01 3.474208585221193468e-01 1.638509968240519643e-01 7.704986981543718860e-01 4.097628688423268217e-01 -4.646856609244883751e-01 3.231405276849290131e-01 -2.539465668606297188e-01 0.000000000000000000e+00 0.000000000000000000e+00 0.000000000000000000e+00 1.892868260420323479e-15 -3.987713527528981786e-16 0.000000000000000000e+00 -7.432288632973933798e-16 -3.565727853405233817e-16 0.000000000000000000e+00 1.579072914164940547e-16 8.134585212896426062e-16 -3.511092071968450875e-17 0.000000000000000000e+00 0.000000000000000000e+00 0.000000000000000000e+00 0.000000000000000000e+00 2.696312292159614317e-16 -1.383247756944474441e-15 0.000000000000000000e+00 -1.220339546766930798e-15 2.196467780853514346e-15 1.579072914164940547e-16 8.134585212896426062e-16 -3.511092071968450875e-17 0.000000000000000000e+00 -2.099067915198928227e-15 9.339415472655921895e-17 0.000000000000000000e+00 1.163278333982982718e-15 1.183563586338542924e-15 0.000000000000000000e+00 -5.477539606166241245e-16 -3.879180094317709927e-17 1.579072914164940547e-16 8.134585212896426062e-16 -3.511092071968450875e-17 0.000000000000000000e+00 0.000000000000000000e+00 0.000000000000000000e+00 0.000000000000000000e+00 5.351390576321537521e-16 1.662191500327263505e-15 0.000000000000000000e+00 -5.085343172357360476e-16 5.029552648114434655e-16 1.579072914164940547e-16 8.134585212896426062e-16 -3.511092071968450875e-17 0.000000000000000000e+00 0.000000000000000000e+00 0.000000000000000000e+00 0.000000000000000000e+00 7.223712486389633052e-16 2.231976332222593022e-15 0.000000000000000000e+00 -1.425091793476362416e-15 9.942543932277268791e-16
7.500972956335648405e+02 3.418906074467709111e-02 2.708824347113323316e-01 3.408782091901294692e-02 8.781341542048913540e-02 4.413247797765545988e-01 -4.638126962651769603e-01 1.379106754387496858e-01 -7.686665747569679796e-01 1.349942004872540791e-01 -4.471207666279128912e-01 -3.301245734983617591e-02 -8.563532675884975853e-02 1.567895771270955141e-01 2.705344328989962160e-02 -2.121786372399853127e-01 -1.665889944224482611e-01 -5.428535176800585171e-01 7.558749262887133613e-02 -1.018537624579128748e-01 -1.508479289014106051e-01 2.104131939922800065e-01 7.907010037502093525e-02 3.038842063841031838e-01 3.369255781750309375e-01 2.177410823906333198e-02 -4.375462319062732308e-01 7.554439434726623048e-02 -1.241735696626458489e-02 -9.394901767210700472e-02 1.242455338221781641e-01 -2.769960852273755866e-02 -1.448742694040755508e-01 -1.052511570906603314e-02 2.865452401792415241e-02 -3.545800966032836704e-02 7.940958555613651659e-02 9.338295079712097269e-02 7.236744561866752246e-02 -1.963547519352801807e-01 4.504327022096160094e-01 -7.938623719401199930e-01 -2.824836796061759303e-01 -2.111406328649899009e-02 3.798748728995927637e-01 -4.647841805346241140e-01 4.173463067487144240e-01 2.185320076718402227e-01 -4.045595872585365349e+00 1.339703036988385110e+00 -3.039962020325137182e+00 6.168503732880243895e-01 -5.753201729844649170e-01 5.433078839937418580e-01 0.000000000000000000e+00 0.000000000000000000e+00 0.000000000000000000e+00 1.594960915934400240e-15 1.171195548577068075e-15 0.000000000000000000e+00 1.735359621351039208e-15 6.317409177867548033e-16 0.000000000000000000e+00 -6.595749227078473833e-16 -2.882896587310290972e-15 -1.635302985584161581e-15 0.000000000000000000e+00 0.000000000000000000e+00 0.000000000000000000e+00 0.000000000000000000e+00 -2.742641212910479246e-16 -3.554816152930606775e-15 0.000000000000000000e+00 5.952960290969554770e-16 8.772614297906707486e-16 -6.595749227078473833e-16 -2.882896587310290972e-15 -1.635302985584161581e-15 0.000000000000000000e+00 -1.764315356613739908e-15 -8.020373564750975499e-15 0.000000000000000000e+00 -5.774497773616956107e-16 -6.716691014394437734e-15 0.000000000000000000e+00 -3.504031172345392384e-15 -2.211309898129420335e-15 -6.595749227078473833e-16 -2.882896587310290972e-15 -1.635302985584161581e-15 0.000000000000000000e+00 0.000000000000000000e+00 0.000000000000000000e+00 0.000000000000000000e+00 -1.001783510511369063e-15 -2.062029286397136396e-15 0.000000000000000000e+00 1.194953456593829355e-15 -3.700274635703698467e-16 -6.595749227078473833e-16 -2.882896587310290972e-15 -1.635302985584161581e-15 0.000000000000000000e+00 0.000000000000000000e+00 0.000000000000000000e+00 0.000000000000000000e+00 4.618067555115280745e-16 2.008125116223978679e-15 0.000000000000000000e+00 8.427687576668936936e-16 2.464519795073772791e-15 6.757129286651938904e-02 -4.151380116064118941e-01 -3.035031142902203105e-01 -1.981241017476843558e-01 -4.168904085079565003e-01 3.893772783483776534e-01 2.003149747601590258e-01 6.564953644104281061e-01 4.168850593272295235e-01 -4.258611062446842066e-01 3.985715296723996159e-01 -3.374158344560742595e-01 0.000000000000000000e+00 0.000000000000000000e+00 0.000000000000000000e+00 2.002001366145866555e-15 -4.557162585304912892e-16 0.000000000000000000e+00 -7.857909501706730362e-16 -3.825107670884403077e-16 0.000000000000000000e+00 1.842668349438086858e-16 8.796074009756589113e-16 -5.545372398252879560e-17 0.000000000000000000e+00 0.000000000000000000e+00 0.000000000000000000e+00 0.000000000000000000e+00 2.671405083343065366e-16 -1.316238776082427691e-15 0.000000000000000000e+00 -1.288703601437795003e-15 2.087500838848104464e-15 1.842668349438086858e-16 8.796074009756589113e-16 -5.545372398252879560e-17 0.000000000000000000e+00 -1.970852465967622325e-15 7.068209414900115158e-17 0.000000000000000000e+00 1.257330968785177955e-15 1.478044768212982329e-15 0.000000000000000000e+00 -4.546750238043686221e-16 -1.312954659972984783e-16 1.842668349438086858e-16 8.796074009756589113e-16 -5.545372398252879560e-17 0.000000000000000000e+00 0.000000000000000000e+00 0.000000000000000000e+00 0.000000000000000000e+00 5.312859623349944952e-16 1.603471373838405423e-15 0.000000000000000000e+00 -5.842790081349405165e-16 4.303453613309783751e-16 1.842668349438086858e-16 8.796074009756589113e-16 -5.545372398252879560e-17 0.000000000000000000e+00 0.000000000000000000e+00 0.000000000000000000e+00 0.000000000000000000e+00 5.521306011840186392e-16 2.555062875484208369e-15 0.000000000000000000e+00 -1.426985771579765072e-15 1.063461473308233416e-15
